<?xml version="1.0" standalone="no"?>
<!DOCTYPE svg PUBLIC "-//W3C//DTD SVG 20010904//EN"
 "http://www.w3.org/TR/2001/REC-SVG-20010904/DTD/svg10.dtd">
<svg version="1.0" xmlns="http://www.w3.org/2000/svg"
 width="400.000000pt" height="400.000000pt" viewBox="0 0 400.000000 400.000000"
 preserveAspectRatio="xMidYMid meet">
<metadata>
Created by potrace 1.11, written by Peter Selinger 2001-2013
</metadata>
<g transform="translate(0.000000,400.000000) scale(0.100000,-0.100000)"
fill="#000000" stroke="none">
<path d="M0 3066 c0 -878 1 -935 18 -939 16 -4 16 -5 0 -6 -17 -1 -18 -59 -18
-1061 l0 -1060 365 0 c201 1 364 4 364 8 -4 22 4 34 34 52 17 11 26 20 20 20
-7 0 -13 9 -13 20 0 11 -4 20 -10 20 -5 0 -10 -8 -10 -17 0 -15 -2 -15 -9 -4
-5 8 -16 11 -25 8 -9 -4 -16 -2 -16 4 0 6 -4 7 -10 4 -5 -3 -18 -1 -27 5 -16
10 -16 10 2 6 11 -3 27 -1 35 4 13 9 13 10 0 11 -8 1 -21 1 -29 0 -7 -2 -11 4
-8 11 2 7 0 21 -5 31 -9 18 13 63 25 50 4 -3 7 -1 7 4 0 6 -6 14 -12 16 -7 3
-2 6 11 6 19 1 21 4 12 15 -8 9 -8 15 -1 18 5 1 12 14 15 26 2 13 6 31 9 40 3
9 1 23 -3 31 -6 10 -4 26 6 45 20 40 30 45 71 42 18 -1 35 1 37 5 3 4 -15 9
-39 10 -24 2 -42 1 -39 -3 2 -5 -1 -8 -7 -8 -8 0 -9 11 -4 33 4 17 7 38 7 45
0 6 4 12 9 12 5 0 6 9 3 21 -6 18 -4 20 15 14 17 -5 21 -4 18 6 -3 8 -15 13
-27 12 -11 -2 -21 2 -21 7 0 6 9 10 20 10 18 0 25 10 21 32 0 4 5 5 13 2 8 -3
17 -1 21 5 3 6 3 12 -2 12 -4 1 -21 3 -36 5 -33 3 -57 21 -57 40 0 20 17 17
29 -3 6 -10 11 -12 11 -6 0 7 10 13 23 13 46 0 56 4 62 27 3 13 3 28 0 33 -4
6 1 10 11 10 11 0 15 -6 11 -20 -4 -16 0 -19 24 -17 16 1 29 5 29 10 0 4 13 1
30 -8 16 -8 36 -15 45 -15 24 0 17 -20 -7 -21 -16 -1 -18 -3 -6 -6 9 -2 19
-12 21 -21 4 -15 5 -15 6 1 1 18 26 23 36 7 3 -6 12 -10 18 -9 9 0 9 2 0 5 -8
4 -9 14 -3 35 8 28 8 29 -26 29 -19 0 -34 4 -34 9 0 12 69 8 78 -5 4 -6 15
-13 24 -17 12 -4 15 -12 11 -23 -5 -15 -1 -16 33 -9 60 12 79 11 79 -4 0 -7
-10 -17 -22 -22 -18 -6 -21 -5 -16 8 4 11 2 14 -8 11 -8 -3 -14 -11 -15 -19 0
-8 -2 -20 -2 -26 -1 -8 -17 -13 -39 -14 -21 0 -47 -4 -57 -8 -19 -7 -19 -8 -1
-15 11 -4 21 -2 26 5 4 6 12 8 18 4 9 -5 9 -10 0 -21 -10 -12 -9 -17 1 -27 9
-8 11 -8 7 -1 -4 7 0 14 8 18 8 3 15 12 15 21 0 8 5 15 11 15 6 0 9 -7 5 -15
-4 -11 1 -15 17 -15 16 0 18 3 8 9 -18 12 -9 36 15 36 10 0 18 5 17 11 -1 7 7
10 20 8 12 -2 16 -1 9 2 -9 4 -8 11 8 24 l20 18 -22 6 c-22 6 -22 7 -4 18 13
7 21 8 23 1 2 -6 10 -18 17 -28 13 -18 15 -17 39 7 14 14 25 27 24 29 -2 2 15
-14 36 -36 l38 -40 -30 41 c-17 22 -35 54 -40 71 -8 27 -7 31 7 26 14 -5 15
-3 5 8 -7 7 -13 17 -13 23 0 5 6 2 13 -9 8 -10 19 -15 25 -12 6 5 8 0 5 -12
-3 -12 -11 -17 -19 -14 -16 6 -18 -5 -4 -27 6 -10 10 -11 10 -2 0 6 5 12 11
12 5 0 8 -4 5 -9 -7 -11 34 -2 52 12 7 6 11 16 8 24 -4 8 -1 11 5 8 6 -4 8
-12 6 -19 -3 -6 2 -21 10 -31 15 -19 15 -19 10 3 -4 18 -3 21 7 13 7 -6 15 -8
18 -5 4 3 24 -4 46 -15 90 -46 360 -73 504 -50 29 5 67 11 85 14 63 10 323
115 323 130 0 3 -18 -4 -40 -15 -54 -28 -215 -80 -248 -81 -15 0 -52 -8 -82
-18 -75 -25 -142 -23 -146 4 -4 19 6 50 27 85 5 8 16 29 24 45 14 27 14 28 0
11 -8 -11 -15 -23 -15 -27 0 -4 -9 -9 -20 -12 -11 -3 -20 -13 -20 -24 0 -10
-5 -34 -10 -54 l-10 -36 -99 2 c-129 3 -175 23 -177 75 -2 44 -11 111 -22 171
-9 46 -1 89 17 89 5 0 16 3 25 6 12 5 16 0 17 -17 0 -13 3 -18 6 -11 2 6 22
12 43 12 21 0 41 6 43 13 3 7 6 5 6 -6 1 -14 5 -16 20 -8 10 6 21 8 24 5 11
-12 102 -10 137 1 39 13 64 9 53 -8 -3 -7 3 -4 14 5 11 10 27 18 35 18 9 0 21
6 27 14 7 8 23 17 36 20 15 4 27 16 31 31 3 14 10 22 15 19 5 -3 9 -1 9 5 0 6
7 8 16 4 13 -5 15 -1 10 18 -3 13 -3 18 0 12 8 -18 25 -16 18 1 -7 17 12 31
21 16 8 -13 35 6 35 25 0 7 10 15 23 19 19 5 20 8 7 17 -12 8 -9 9 13 5 15 -4
27 -2 27 4 0 5 5 9 11 7 6 -1 16 7 22 18 7 10 18 25 25 33 7 7 9 18 6 24 -5 7
-2 8 5 4 7 -5 10 -14 7 -22 -3 -8 -3 -14 0 -14 9 0 43 44 43 55 0 6 -6 1 -14
-9 -13 -17 -15 -18 -15 -3 0 9 3 17 8 18 4 0 21 2 37 4 28 4 31 2 30 -23 -1
-15 4 -45 10 -67 6 -22 12 -44 13 -50 3 -20 37 -75 46 -75 5 0 24 -11 42 -25
18 -14 37 -25 42 -25 5 0 17 -9 26 -19 19 -21 13 -44 -22 -84 -13 -14 -13 -17
-1 -12 8 3 27 25 44 49 26 38 31 42 42 27 9 -11 12 -12 13 -3 0 7 5 10 10 7 6
-4 8 -11 5 -16 -6 -8 8 -13 28 -10 4 0 7 -4 7 -10 0 -5 5 -7 11 -4 6 4 17 -1
24 -11 17 -23 19 -35 4 -31 -6 1 -14 -4 -16 -11 -3 -7 1 -11 9 -10 7 2 12 -3
11 -9 -2 -8 7 -13 20 -13 16 0 23 6 24 21 2 18 0 19 -15 7 -16 -12 -16 -11 -2
7 8 11 15 22 17 24 4 6 57 -31 66 -46 5 -7 13 -11 18 -7 5 3 8 0 7 -8 -3 -12
2 -14 45 -17 9 0 17 -7 17 -15 0 -8 5 -18 12 -22 7 -4 8 -3 4 4 -4 7 -2 12 4
12 18 0 100 -82 93 -93 -3 -6 -1 -7 6 -3 14 9 71 -31 71 -50 0 -8 4 -12 10 -9
5 3 10 2 10 -4 0 -5 13 -12 30 -16 16 -4 33 -11 36 -17 5 -7 2 -8 -7 -4 -8 4
-3 -2 11 -13 14 -11 34 -24 45 -27 16 -5 72 -42 124 -81 2 -2 1 -6 -2 -10 -4
-3 -17 3 -30 14 -36 32 -99 64 -114 59 -8 -3 -12 -2 -9 3 6 10 -16 31 -36 35
-19 4 -51 19 -63 28 -25 21 -119 88 -123 88 -3 0 3 -10 14 -22 10 -13 20 -24
20 -26 1 -2 10 -5 21 -7 10 -2 20 -4 22 -4 2 -1 -6 -9 -17 -20 -12 -10 -22
-21 -22 -23 0 -6 59 -22 78 -21 10 1 10 -2 0 -16 -7 -9 -17 -19 -23 -23 -6 -5
-5 -8 3 -8 6 0 12 -7 12 -16 0 -10 6 -14 15 -10 14 5 20 -5 16 -27 -1 -5 7 -8
16 -7 10 1 27 2 38 1 l20 -2 -20 -16 c-16 -13 -17 -15 -2 -10 11 4 17 1 17 -9
0 -12 7 -15 25 -12 14 3 25 1 25 -6 0 -8 3 -7 8 1 9 14 72 -10 72 -27 0 -7 -7
-7 -22 1 -21 11 -22 11 -9 -5 8 -9 22 -15 31 -14 10 2 28 -6 40 -17 l23 -20
-7 25 c-3 14 -3 19 0 12 3 -6 10 -10 15 -6 5 3 9 -6 9 -20 0 -17 4 -24 13 -20
14 5 72 -35 63 -44 -3 -3 -15 3 -26 13 -11 10 -20 13 -20 7 0 -13 49 -40 81
-45 13 -2 33 -17 46 -33 21 -28 21 -30 3 -30 -10 0 -17 3 -14 7 2 4 -4 13 -14
20 -14 11 -15 11 -5 0 6 -7 9 -20 6 -27 -3 -9 2 -14 15 -14 12 0 24 -5 27 -10
3 -6 1 -10 -5 -10 -7 0 -5 -7 4 -16 9 -8 20 -12 26 -9 5 3 10 1 10 -5 0 -7 7
-10 14 -7 10 4 13 1 9 -9 -3 -8 -2 -14 3 -13 5 1 16 1 24 0 13 -1 13 -3 1 -10
-9 -6 -23 -6 -35 1 -14 7 -11 1 9 -18 17 -16 36 -28 43 -25 8 2 13 -3 12 -10
-5 -34 -1 -42 15 -29 9 7 18 10 22 6 3 -3 2 -6 -4 -6 -6 0 -14 -7 -17 -16 -4
-12 -2 -15 9 -10 8 3 14 2 14 -2 -3 -21 3 -32 19 -33 10 0 12 -3 5 -6 -15 -6
-17 -33 -3 -33 6 0 10 -9 10 -20 0 -13 -5 -18 -15 -14 -18 7 -21 -21 -3 -32 7
-4 8 -3 4 4 -4 7 -2 12 3 12 6 0 11 -4 11 -10 0 -5 16 -10 35 -10 l35 0 0 925
c0 597 -4 925 -10 925 -6 0 -10 -5 -10 -11 0 -6 -9 -8 -22 -4 -20 5 -21 4 -5
-5 9 -6 22 -8 27 -5 6 4 9 -26 8 -82 l-2 -88 -3 78 c-4 79 -5 81 -50 80 -7 -1
-10 3 -7 8 3 5 -2 17 -11 26 -16 15 -43 22 -107 25 -16 0 -28 6 -28 13 0 15
-22 25 -52 25 -12 0 -27 8 -34 18 -13 16 -13 16 -14 0 0 -22 -14 -23 -34 -3
-8 8 -17 15 -21 15 -4 0 -13 7 -21 15 -9 9 -25 13 -38 9 -14 -3 -27 1 -35 10
-16 19 -64 21 -83 4 -15 -15 -74 -17 -70 -3 1 6 11 10 21 10 37 0 31 12 -9 23
-33 8 -42 7 -47 -4 -7 -19 -43 -18 -43 1 0 8 -4 15 -10 15 -5 0 -10 -7 -10
-15 0 -8 -8 -15 -17 -15 -14 0 -15 2 -4 9 9 6 10 11 2 15 -6 4 -18 0 -27 -8
-8 -9 -21 -16 -27 -16 -7 0 -6 4 3 10 17 11 10 13 -36 10 -22 -1 -36 5 -47 20
-8 11 -18 20 -23 19 -25 -4 -46 2 -41 14 3 8 -11 13 -47 14 -28 2 -52 7 -54
13 -2 5 -19 10 -37 10 -23 0 -38 6 -44 18 -5 10 -21 24 -35 31 -21 11 -28 12
-41 1 -9 -7 -15 -8 -15 -2 0 6 5 12 12 14 7 3 11 19 10 41 -2 25 2 37 10 37
10 0 10 2 -1 9 -8 5 -11 17 -7 32 6 21 5 22 -4 6 -7 -10 -9 -25 -6 -33 3 -8 2
-13 -3 -9 -5 3 -11 -1 -14 -7 -2 -7 -2 10 0 37 3 37 2 46 -6 35 -8 -11 -11 -4
-11 32 0 58 8 82 24 69 9 -8 11 -1 8 25 -3 20 -11 38 -18 41 -8 3 -11 9 -8 15
5 8 17 181 15 213 -1 6 -3 31 -5 57 -2 26 1 45 5 42 10 -6 12 10 2 19 -3 4 -7
25 -7 46 -1 22 -5 43 -9 47 -4 4 -1 17 7 30 13 19 13 24 0 40 -14 18 -14 17
-4 -6 11 -24 10 -24 -4 -6 -15 18 -21 51 -17 85 2 7 -2 10 -8 6 -6 -3 -11 0
-11 8 0 8 -7 20 -15 27 -9 7 -13 15 -10 18 3 3 -7 20 -21 39 -14 18 -22 33
-19 33 4 0 -10 20 -29 43 -20 24 -32 48 -28 52 4 5 2 5 -5 1 -7 -4 -14 2 -18
15 -4 11 -9 18 -12 15 -7 -7 -32 17 -26 27 2 4 -2 7 -9 7 -7 0 -2 7 10 16 12
8 27 12 34 8 6 -4 8 -3 5 3 -4 6 -18 11 -32 11 -15 0 -22 -5 -18 -12 4 -7 1
-6 -9 1 -8 7 -17 12 -19 10 -10 -5 21 19 38 30 13 9 14 12 3 10 -10 -1 -14 5
-12 17 3 15 1 16 -11 5 -11 -10 -12 -16 -3 -22 6 -4 0 -5 -14 -3 -14 3 -36 5
-50 6 l-25 1 28 15 c15 8 27 21 27 29 0 19 -19 19 -41 -1 -13 -11 -17 -12 -16
-2 2 50 -5 98 -13 98 -7 0 -8 -13 -4 -35 5 -27 3 -35 -9 -35 -8 0 -20 7 -27
15 -7 8 -21 15 -31 15 -11 0 -19 5 -19 11 0 7 -9 9 -22 6 -14 -4 -38 3 -66 19
-24 14 -46 23 -49 20 -10 -9 -33 22 -33 45 0 30 -9 19 -12 -14 -1 -15 -4 -27
-6 -27 -1 0 -20 9 -42 20 -21 11 -60 22 -87 25 -70 8 -105 15 -116 22 -6 3 -7
1 -3 -5 9 -15 5 -15 -28 -2 -18 6 -25 6 -23 -1 2 -13 -40 -22 -47 -10 -3 4
-17 6 -30 4 -18 -4 -23 -10 -19 -22 5 -13 3 -14 -8 -3 -18 16 -34 15 -20 -2 9
-11 2 -15 -41 -22 -29 -4 -68 -7 -86 -7 -18 1 -30 -2 -27 -7 3 -4 -5 -6 -17
-2 -14 3 -19 2 -14 -6 4 -7 1 -12 -9 -12 -10 0 -13 -5 -9 -12 4 -7 3 -8 -5 -4
-6 4 -14 1 -17 -7 -3 -8 -26 -21 -52 -28 -43 -12 -45 -14 -22 -20 l25 -7 -25
-2 c-14 -1 -19 -4 -13 -7 8 -3 -1 -18 -26 -41 -33 -31 -46 -55 -74 -142 -37
-112 -53 -183 -61 -269 -3 -29 -10 -59 -16 -66 -6 -7 -8 -20 -4 -29 3 -9 2
-16 -2 -16 -15 0 -17 -102 -2 -111 10 -7 10 -9 -2 -9 -12 0 -12 -2 -2 -9 11
-7 11 -11 -1 -22 -17 -17 -18 -52 -2 -45 6 2 12 -2 12 -9 0 -8 -7 -11 -15 -7
-11 4 -13 2 -6 -9 14 -23 15 -57 3 -65 -9 -5 -10 -2 -6 9 3 10 3 17 -2 17 -5
0 -7 -33 -7 -72 2 -50 6 -72 14 -70 16 3 15 -10 0 -27 -10 -11 -10 -13 0 -7 7
5 12 1 12 -9 0 -9 -4 -14 -9 -11 -5 3 -12 -1 -15 -10 -9 -24 -7 -31 4 -14 5 8
10 10 10 4 0 -6 -3 -14 -7 -18 -12 -12 -11 -60 1 -68 8 -5 7 -8 -2 -8 -9 0
-11 -7 -7 -20 5 -15 3 -18 -9 -14 -10 4 -16 1 -16 -9 0 -9 -3 -22 -6 -31 -3
-9 -1 -16 5 -16 6 0 11 10 12 23 0 22 0 22 12 -2 9 -19 9 -25 -1 -29 -10 -3
-10 -7 0 -20 8 -10 8 -13 1 -9 -6 4 -22 3 -35 -2 -19 -8 -20 -10 -4 -10 15 -1
16 -4 6 -16 -10 -12 -10 -15 0 -15 6 0 -3 -15 -22 -33 -33 -33 -58 -34 -58 -1
0 8 -10 14 -25 14 -14 0 -25 -4 -25 -10 0 -5 7 -10 15 -10 20 0 19 -10 -3 -26
-16 -13 -16 -13 1 -14 19 0 23 -15 7 -25 -5 -3 -10 0 -10 7 0 9 -3 9 -8 2 -10
-15 -88 -33 -103 -23 -11 6 -10 9 4 15 11 4 17 17 17 40 0 30 3 34 28 35 22 1
23 2 5 6 -32 6 -67 -15 -54 -31 18 -22 -22 -50 -60 -42 -31 6 -31 5 -26 -24 4
-19 1 -34 -9 -45 -8 -8 -12 -19 -9 -25 3 -6 -1 -13 -9 -16 -9 -3 -16 -16 -16
-28 -1 -19 -2 -19 -11 -3 -5 9 -17 17 -24 17 -18 0 -20 -16 -2 -24 6 -4 2 -4
-10 -2 -15 3 -20 0 -16 -10 3 -8 9 -14 15 -14 5 0 6 -5 3 -10 -5 -8 -11 -7
-21 1 -12 10 -17 8 -28 -6 -13 -18 -14 -18 -24 0 -8 15 -13 17 -24 7 -10 -8
-18 -8 -25 -1 -8 8 -13 5 -18 -11 -5 -15 -13 -20 -26 -17 -20 5 -89 -52 -89
-74 0 -6 -7 -8 -15 -5 -11 4 -15 0 -13 -12 2 -12 -3 -16 -17 -14 -13 2 -16 0
-8 -6 10 -6 9 -13 -3 -30 -16 -24 -44 -30 -44 -9 0 9 -3 8 -9 -2 -6 -9 -16
-11 -32 -6 -21 7 -22 6 -10 -9 18 -21 -4 -22 -26 -1 -8 8 -19 13 -24 10 -15
-10 -10 -23 8 -28 10 -2 0 -4 -22 -4 -27 0 -34 2 -21 7 14 5 16 9 7 14 -6 4
-18 2 -26 -4 -11 -9 -15 -9 -15 -1 0 6 -7 11 -16 11 -11 0 -13 6 -9 19 4 14 0
21 -14 26 -16 5 -19 13 -16 40 4 25 0 37 -12 44 -14 8 -15 12 -4 25 9 11 10
16 2 16 -23 0 -10 28 16 35 24 6 26 8 10 16 -9 6 -17 17 -17 24 0 20 10 19 26
-2 13 -17 13 -17 14 0 0 9 -4 17 -10 17 -5 0 -10 7 -10 15 0 8 5 15 10 15 6 0
10 7 10 16 0 11 -6 14 -20 9 -14 -5 -20 -2 -20 10 0 12 6 15 20 10 16 -5 20
-2 20 19 0 19 -5 26 -19 26 -11 0 -23 5 -26 10 -4 6 -11 8 -16 5 -5 -4 -9 1
-9 9 0 9 7 16 15 16 9 0 15 9 15 25 0 14 5 25 12 25 9 0 9 3 1 11 -14 14 -5
49 13 49 8 0 14 9 14 19 0 11 5 23 10 26 6 3 10 15 10 26 0 15 7 19 33 19 18
0 39 -6 47 -12 8 -7 5 -1 -8 13 -25 28 -30 48 -8 29 12 -9 18 -7 32 9 17 19
40 20 29 0 -4 -5 3 -9 14 -9 23 0 22 31 -2 39 -12 4 -14 10 -7 21 9 13 11 13
20 0 5 -8 10 -10 10 -4 0 5 -7 19 -15 30 -13 17 -14 17 -15 2 0 -25 -20 -23
-20 2 0 11 -4 20 -10 20 -5 0 -10 -9 -10 -19 0 -21 -17 -37 -28 -26 -3 3 0 10
8 15 13 8 12 10 -2 10 -10 0 -18 4 -18 9 0 5 -11 8 -25 5 -14 -2 -25 0 -25 6
0 5 10 11 23 11 16 1 17 3 5 6 -9 2 -26 -1 -37 -6 -24 -13 -51 -4 -51 16 0 8
-5 11 -10 8 -6 -3 -10 5 -10 18 0 17 7 27 23 31 20 6 19 8 -13 19 -28 10 -34
17 -32 35 2 17 -2 22 -17 22 -12 0 -21 -7 -21 -15 0 -8 5 -15 10 -15 19 0 10
-16 -10 -17 -19 -2 -25 11 -21 44 1 6 -6 14 -16 16 -17 4 -17 5 0 6 9 0 17 6
17 12 0 5 -5 7 -10 4 -10 -6 -12 0 -14 47 -1 19 2 24 10 17 8 -6 14 -4 18 7 8
22 -4 40 -15 23 -6 -10 -9 -10 -9 -2 0 7 9 21 21 31 17 17 18 20 4 26 -11 4
-14 2 -9 -7 5 -8 4 -9 -3 -2 -10 9 -24 125 -16 125 2 0 8 -10 13 -22 8 -20 9
-18 7 13 -2 32 -4 35 -19 25 -10 -6 -18 -22 -17 -36 3 -82 -5 -259 -10 -220
-5 37 8 394 21 568 2 23 1 42 -2 42 -6 0 13 387 20 393 6 7 3 -180 -3 -190 -9
-14 -5 -193 4 -199 5 -3 6 3 3 13 -4 14 -3 15 4 4 8 -11 14 -9 36 10 14 12 26
29 26 36 0 19 -10 16 -31 -9 -22 -25 -27 -23 -35 21 -7 32 -6 33 15 21 13 -6
25 -9 28 -6 9 9 -6 38 -17 31 -5 -3 -10 -1 -10 4 0 6 15 12 33 12 17 1 24 3
14 6 -28 7 -17 45 18 62 26 13 27 16 10 19 -11 2 -25 11 -31 20 -17 23 4 54
31 46 18 -4 18 -4 3 6 -10 6 -18 21 -19 33 0 22 0 22 -10 -1 -12 -30 -28 -20
-21 13 3 19 9 24 22 20 18 -6 34 23 30 58 -1 9 6 17 15 17 11 0 14 -6 9 -25
-4 -15 -2 -25 5 -25 6 0 11 11 11 25 0 14 5 25 11 25 6 0 22 8 35 19 23 18 23
19 4 36 -27 25 -25 38 5 31 14 -4 35 -1 47 5 17 9 23 9 26 0 4 -13 32 -15 32
-2 0 5 -6 12 -12 14 -7 3 -3 6 9 6 12 1 23 7 26 14 2 6 4 0 4 -15 0 -16 -4
-28 -9 -28 -5 0 -6 -4 -3 -10 3 -5 16 -10 28 -10 16 0 19 3 8 9 -7 5 -10 14
-7 20 4 6 2 11 -5 11 -8 0 -8 4 2 16 8 10 9 18 2 22 -5 4 -12 17 -15 28 -5 21
-5 21 23 5 24 -13 30 -14 41 -2 11 12 10 13 -5 8 -19 -7 -47 13 -47 34 0 9 4
8 15 -1 8 -7 15 -9 15 -5 0 4 7 2 15 -5 10 -9 15 -9 15 -1 0 23 21 10 31 -19
13 -35 24 -38 41 -11 6 10 16 17 22 15 6 -2 16 7 22 20 11 23 9 25 -15 28 -18
2 -25 8 -23 21 4 25 -21 21 -53 -9 l-28 -25 7 24 6 25 -200 1 -199 1 -4 -67
-3 -68 -2 68 -2 67 -35 0 -35 0 0 -934z m420 908 c0 -8 -5 -12 -10 -9 -6 4 -8
11 -5 16 9 14 15 11 15 -7z m-90 -9 c7 -9 8 -15 2 -15 -5 0 -12 7 -16 15 -3 8
-4 15 -2 15 2 0 9 -7 16 -15z m-26 -21 c20 -8 20 -20 0 -28 -8 -3 -12 -2 -9 4
3 6 1 10 -4 10 -6 0 -11 5 -11 10 0 12 3 12 24 4z m236 -10 c0 -8 -4 -12 -10
-9 -5 3 -10 10 -10 16 0 5 5 9 10 9 6 0 10 -7 10 -16z m-170 -44 c0 -5 -4 -10
-10 -10 -5 0 -10 5 -10 10 0 6 5 10 10 10 6 0 10 -4 10 -10z m-53 -34 c-14
-11 -15 -15 -5 -19 7 -3 3 -6 -10 -6 -13 -1 -20 3 -17 9 3 6 -3 10 -15 10 -12
0 -18 -4 -15 -10 3 -5 -4 -10 -16 -10 -40 0 -1 29 44 33 23 2 44 4 47 5 3 1
-3 -5 -13 -12z m-94 -73 c-7 -2 -21 -2 -30 0 -10 3 -4 5 12 5 17 0 24 -2 18
-5z m21 -18 c-4 -8 -11 -12 -16 -9 -6 4 -5 10 3 15 19 12 19 11 13 -6z m-74
-5 c0 -5 -5 -10 -11 -10 -5 0 -7 5 -4 10 3 6 8 10 11 10 2 0 4 -4 4 -10z m-70
-100 c0 -11 -4 -20 -9 -20 -5 0 -7 9 -4 20 3 11 7 20 9 20 2 0 4 -9 4 -20z
m20 -80 c0 -5 -4 -10 -9 -10 -6 0 -13 5 -16 10 -3 6 1 10 9 10 9 0 16 -4 16
-10z m1270 -183 c0 -2 -10 -12 -22 -23 l-23 -19 19 23 c18 21 26 27 26 19z
m698 -91 c19 -10 40 -15 47 -13 7 3 16 2 21 -3 5 -5 22 -11 39 -14 16 -3 35
-12 41 -21 6 -8 17 -15 25 -15 12 0 12 -2 0 -9 -12 -8 -12 -12 2 -26 15 -15
21 -13 18 7 0 4 6 5 14 2 8 -4 13 -9 10 -13 -2 -5 9 -18 25 -30 17 -12 29 -27
27 -33 -1 -7 8 -17 21 -23 20 -9 27 -28 23 -62 -1 -6 3 -14 9 -18 5 -3 10 -18
11 -33 0 -26 1 -26 9 -4 5 12 12 22 16 22 3 0 4 -7 0 -15 -3 -8 6 -31 19 -51
14 -20 22 -41 19 -46 -4 -6 0 -14 7 -19 11 -7 10 -9 -3 -9 -13 0 -18 -8 -18
-30 0 -17 5 -30 13 -31 9 0 9 -2 -1 -6 -11 -4 -11 -8 1 -22 7 -9 20 -32 27
-51 8 -19 19 -38 24 -42 7 -5 7 -8 -1 -8 -7 0 -13 -10 -13 -23 0 -18 -5 -23
-24 -22 -13 0 -28 3 -32 7 -4 4 -13 3 -21 -3 -10 -9 -13 -8 -13 4 0 8 6 18 13
21 8 4 7 5 -3 5 -36 -3 -50 2 -50 15 0 8 -9 18 -20 21 -11 3 -20 11 -20 16 0
5 -4 9 -10 9 -5 0 -10 -9 -10 -20 0 -11 -7 -20 -15 -20 -8 0 -15 -3 -15 -8 0
-4 -11 -19 -25 -34 -22 -24 -23 -27 -7 -32 9 -3 34 -3 55 -1 22 3 37 1 37 -5
0 -6 -6 -8 -12 -5 -7 4 -2 -3 12 -14 14 -11 31 -21 38 -21 6 0 12 -5 12 -11 0
-6 7 -8 16 -5 8 3 13 2 10 -3 -3 -5 6 -16 20 -26 25 -16 25 -16 15 4 -9 16 -8
22 6 30 16 9 16 11 -6 30 -26 23 -23 34 9 36 15 1 20 -5 20 -22 0 -13 4 -23 9
-23 15 0 22 -49 11 -70 -8 -16 -8 -20 4 -20 11 0 13 -9 10 -37 -3 -20 -10 -43
-16 -51 -7 -8 -12 -53 -12 -112 -1 -55 2 -92 7 -82 8 20 1 -27 -9 -52 -3 -9
-1 -16 5 -16 6 0 11 -15 10 -32 l-1 -33 -14 33 c-8 17 -19 32 -24 32 -7 0 -7
-6 -1 -19 6 -10 7 -21 4 -25 -3 -3 0 -6 8 -6 12 0 12 -2 0 -9 -8 -5 -15 -25
-15 -45 -1 -19 -5 -38 -9 -42 -11 -11 -8 -36 3 -29 6 4 7 11 4 17 -4 6 -2 8 3
5 7 -5 8 -20 2 -44 -5 -23 -4 -39 1 -41 6 -2 10 -8 10 -13 0 -6 -4 -7 -10 -4
-5 3 -11 0 -11 -7 -1 -7 -2 -17 -4 -23 -1 -5 -3 -20 -3 -32 -1 -13 -9 -23 -17
-23 -13 0 -14 -4 -4 -21 7 -15 8 -19 0 -15 -17 11 -51 -13 -51 -37 0 -18 -2
-19 -10 -7 -8 12 -10 12 -11 -5 0 -19 -1 -19 -8 -1 -7 18 -8 18 -14 3 -3 -9
-13 -17 -21 -17 -8 0 -16 -6 -19 -12 -2 -7 -8 -10 -12 -6 -5 5 -3 19 3 34 9
18 9 30 1 42 -10 16 -10 16 -5 0 4 -13 0 -18 -14 -18 -10 0 -22 4 -25 10 -3 6
1 7 9 4 9 -3 16 -1 16 5 0 11 -14 15 -35 12 -5 -1 -3 5 6 14 12 12 14 24 9 43
-34 114 -35 116 -63 123 -16 4 -35 13 -44 20 -14 13 -28 17 -65 21 -10 1 -18
6 -18 11 0 5 -7 15 -15 23 -8 9 -15 11 -15 5 0 -6 -9 -11 -20 -11 -11 0 -20
-6 -21 -12 0 -10 -2 -10 -6 0 -2 6 -11 12 -19 12 -8 0 -14 5 -14 10 0 6 -7 10
-16 10 -11 0 -15 6 -11 20 5 18 3 18 -26 7 -17 -7 -33 -19 -35 -26 -3 -8 0
-11 7 -7 7 5 9 1 4 -9 -4 -12 -8 -13 -13 -5 -6 9 -9 9 -15 -1 -6 -9 -11 -6
-17 10 -4 12 -12 19 -18 16 -6 -4 -7 -12 -3 -18 4 -7 0 -6 -10 2 -9 7 -17 11
-17 8 0 -4 -24 7 -52 22 -69 38 -113 47 -121 27 -4 -9 -2 -16 3 -16 6 0 1 -9
-10 -20 -11 -11 -22 -20 -26 -20 -3 0 -22 -11 -42 -25 -20 -14 -33 -25 -29
-25 4 0 -6 -15 -22 -32 -28 -30 -36 -55 -34 -105 1 -7 -4 -13 -9 -13 -6 0 -8
-9 -5 -19 3 -12 0 -18 -9 -17 -27 4 -62 41 -83 89 -12 26 -26 47 -32 47 -6 0
-9 7 -5 15 7 19 -3 47 -15 39 -8 -5 -13 20 -12 69 0 9 -3 17 -6 17 -4 0 -5 24
-3 53 2 28 5 67 6 85 0 17 4 32 7 32 12 0 16 49 6 59 -8 8 -7 15 1 23 16 16
15 31 0 22 -7 -4 -10 -4 -6 1 4 4 18 13 30 20 13 6 22 17 21 23 -2 7 2 11 9 9
7 -1 12 4 13 11 0 17 43 41 74 42 23 0 24 1 6 13 -14 11 -15 16 -5 22 8 5 19
0 29 -14 14 -18 24 -21 66 -17 59 4 84 -2 63 -16 -9 -7 -7 -8 10 -5 32 7 29
-22 -5 -49 -22 -18 -25 -24 -15 -36 6 -8 8 -18 4 -23 -4 -4 2 -3 13 2 11 6 25
8 32 6 6 -2 13 4 16 14 3 10 5 5 6 -13 1 -20 -12 -53 -34 -90 -19 -32 -35 -64
-35 -71 0 -19 30 -29 40 -13 4 7 12 10 17 7 11 -7 40 40 30 49 -3 3 2 15 13
26 19 21 33 68 20 68 -5 0 -6 9 -3 19 3 13 -2 21 -16 26 -24 7 -28 25 -7 25
20 0 31 74 16 111 -7 16 -17 29 -22 29 -5 0 -6 -4 -3 -10 7 -11 -10 -5 -62 20
-48 23 -124 16 -196 -20 -38 -18 -38 -18 -21 1 15 17 15 19 1 19 -19 0 -56
-50 -50 -67 2 -6 -8 -19 -22 -29 -19 -13 -23 -19 -13 -25 9 -6 8 -9 -5 -15 -9
-3 -15 -9 -12 -13 2 -4 -2 -8 -10 -8 -10 0 -11 5 -4 18 6 11 5 20 -1 24 -7 4
-7 12 0 24 5 10 6 22 2 26 -4 3 0 12 9 18 9 7 17 17 19 22 16 60 24 70 54 69
15 -1 26 4 26 11 0 9 14 13 45 12 25 -1 45 -5 45 -9 0 -4 13 -3 29 2 16 4 32
5 36 2 3 -4 3 2 -1 13 -10 27 -39 54 -61 58 -10 1 -42 16 -70 32 -49 28 -53
33 -53 68 0 20 4 37 9 37 5 0 9 11 9 25 0 13 -4 22 -9 19 -5 -2 -6 30 -3 73 5
68 9 80 30 96 13 10 21 23 18 29 -20 32 95 162 180 202 31 15 56 31 56 36 0
11 28 9 48 -3 6 -5 12 -5 12 0 0 4 14 8 30 8 21 0 29 -4 25 -13 -3 -7 0 -10 5
-7 10 6 108 33 150 41 13 3 26 6 27 8 10 9 114 -4 141 -18z m347 -266 c3 -6
-1 -7 -9 -4 -18 7 -21 14 -7 14 6 0 13 -4 16 -10z m-2392 -456 c1 -10 6 -24
10 -31 4 -7 1 -23 -7 -35 -10 -16 -17 -69 -21 -183 -4 -88 -10 -162 -12 -165
-5 -5 5 301 12 360 1 14 3 38 4 54 1 32 9 32 14 0z m99 -69 c-4 -47 -4 -47
-38 -43 -19 2 -34 0 -34 -4 0 -4 5 -8 10 -8 6 0 10 -4 10 -10 0 -17 -14 -11
-32 14 -17 23 -17 23 12 20 37 -4 71 36 51 60 -9 11 -9 15 1 19 21 7 23 1 20
-48z m1088 45 c0 -5 -5 -10 -11 -10 -5 0 -7 5 -4 10 3 6 8 10 11 10 2 0 4 -4
4 -10z m-1131 -13 c8 -11 6 -18 -8 -32 -11 -9 -26 -15 -33 -12 -9 4 -8 6 3 6
11 1 15 9 14 26 -4 28 6 32 24 12z m1504 -59 c-9 -15 -23 -8 -23 12 0 17 2 19
14 8 8 -7 12 -16 9 -20z m42 14 c-3 -3 -11 0 -18 7 -9 10 -8 11 6 5 10 -3 15
-9 12 -12z m-100 -11 c-8 -13 -32 -14 -39 -2 -4 5 3 7 14 4 12 -3 20 0 20 8 0
7 3 10 6 6 3 -3 3 -10 -1 -16z m-1400 -41 c3 -5 2 -10 -4 -10 -5 0 -13 5 -16
10 -3 6 -2 10 4 10 5 0 13 -4 16 -10z m135 -19 c0 -4 -11 -6 -25 -3 -14 2 -25
6 -25 8 0 2 11 4 25 4 14 0 25 -4 25 -9z m2460 -16 c0 -8 -9 -19 -20 -25 -16
-9 -20 -8 -20 5 0 9 5 13 10 10 6 -3 13 1 16 9 8 20 14 20 14 1z m-2649 -9
c-10 -12 -8 -15 11 -19 13 -2 9 -4 -10 -3 -25 2 -31 -1 -27 -14 2 -8 0 -22 -5
-30 -5 -8 -10 -10 -11 -5 -7 46 -5 55 12 60 11 4 19 11 19 16 0 5 5 9 11 9 8
0 8 -4 0 -14z m259 -1 c0 -8 -7 -15 -15 -15 -9 0 -12 6 -9 15 4 8 10 15 15 15
5 0 9 -7 9 -15z m-82 -15 c-8 -13 -15 -16 -19 -8 -10 15 -2 28 17 28 12 0 12
-4 2 -20z m42 -5 c0 -8 -2 -15 -4 -15 -2 0 -6 7 -10 15 -3 8 -1 15 4 15 6 0
10 -7 10 -15z m-115 -5 c3 -6 -4 -10 -17 -10 -18 0 -20 2 -8 10 19 12 18 12
25 0z m-101 -64 c-5 -14 -34 -18 -34 -4 0 4 5 8 11 8 5 0 7 4 4 10 -3 5 0 7 9
4 8 -3 13 -11 10 -18z m2644 -24 c2 -7 7 -10 12 -7 12 7 21 -54 14 -92 -3 -18
-10 -36 -15 -39 -5 -3 -8 -1 -7 4 2 5 -9 21 -24 35 -28 26 -39 55 -16 41 7 -5
8 -3 3 6 -4 7 -2 16 6 21 11 6 11 11 1 21 -6 6 -12 15 -12 19 0 12 34 3 38 -9z
m-1511 -34 c-3 -8 -6 -5 -6 6 -1 11 2 17 5 13 3 -3 4 -12 1 -19z m-1169 -25
c-9 -10 -13 -25 -11 -33 2 -8 -1 -6 -8 4 -10 16 -9 22 7 33 25 18 30 16 12 -4z
m1169 -25 c-3 -8 -6 -5 -6 6 -1 11 2 17 5 13 3 -3 4 -12 1 -19z m-1137 8 c0
-2 -7 -6 -15 -10 -8 -3 -15 -1 -15 4 0 6 7 10 15 10 8 0 15 -2 15 -4z m2700
-33 c-11 -17 -11 -17 -6 0 3 10 6 24 7 30 0 9 2 9 5 0 3 -7 0 -20 -6 -30z
m-110 -8 c0 -8 -4 -15 -10 -15 -5 0 -7 7 -4 15 4 8 8 15 10 15 2 0 4 -7 4 -15z
m-2634 -10 c-8 -8 -18 -15 -22 -15 -3 0 -1 7 6 15 7 8 17 15 22 15 5 0 3 -7
-6 -15z m2664 -89 c0 -19 -4 -37 -9 -40 -10 -6 -24 52 -15 65 12 20 24 7 24
-25z m-1815 -26 c3 -6 -1 -17 -9 -26 -15 -14 -16 -13 -16 10 0 26 13 35 25 16z
m324 -23 c8 -10 7 -14 -2 -14 -8 0 -14 6 -14 14 0 7 1 13 2 13 2 0 8 -6 14
-13z m-249 -7 c0 -12 -44 -24 -62 -17 -8 3 -4 9 12 15 32 14 50 14 50 2z
m-801 -42 c1 -5 -3 -8 -9 -8 -5 0 -10 12 -9 28 0 24 1 25 9 7 5 -11 9 -23 9
-27z m711 18 c0 -2 -3 -11 -6 -20 -9 -23 -24 -20 -24 4 0 11 7 20 15 20 8 0
15 -2 15 -4z m1787 -38 c-3 -8 -6 -5 -6 6 -1 11 2 17 5 13 3 -3 4 -12 1 -19z
m853 -2 c0 -9 -7 -12 -21 -9 -16 4 -17 8 -7 14 19 13 28 11 28 -5z m-1770 -56
c12 -8 9 -10 -13 -10 -16 0 -26 4 -22 10 8 12 16 12 35 0z m186 -30 c8 0 14
-5 14 -11 0 -13 -63 -39 -95 -39 -14 0 -35 0 -48 0 -32 1 -101 26 -105 39 -4
13 -5 13 111 13 49 0 83 4 77 8 -7 5 -9 13 -5 21 6 10 12 7 23 -9 8 -12 21
-22 28 -22z m49 -10 c3 -5 1 -10 -4 -10 -6 0 -11 5 -11 10 0 6 2 10 4 10 3 0
8 -4 11 -10z m134 -21 c-10 -6 -6 -9 12 -9 25 0 27 -4 31 -46 2 -25 0 -48 -5
-51 -4 -2 -5 -13 -2 -24 4 -11 2 -19 -5 -19 -8 0 -11 -11 -8 -29 3 -18 0 -27
-5 -24 -5 3 -18 -5 -28 -18 -13 -17 -15 -28 -8 -44 8 -16 6 -15 -9 4 -13 16
-21 20 -26 12 -4 -6 -12 -9 -17 -6 -13 9 -11 -9 3 -23 7 -7 8 -12 2 -12 -6 0
-16 11 -22 25 -6 14 -16 25 -21 25 -5 0 -14 14 -20 31 -6 19 -15 28 -22 23 -7
-4 -9 0 -6 12 22 72 18 84 -21 60 -16 -10 -107 -11 -188 -3 -54 6 -61 5 -59
-11 0 -9 3 -22 6 -27 3 -6 5 -29 4 -53 -1 -34 2 -42 13 -37 12 5 13 3 2 -10
-7 -9 -20 -13 -28 -10 -10 4 -12 0 -8 -12 4 -10 4 -14 0 -10 -4 4 -13 2 -21
-4 -8 -8 -13 -8 -13 -1 0 6 6 13 13 15 8 4 7 6 -4 6 -8 1 -20 -4 -26 -10 -8
-8 -13 -3 -18 19 -3 17 -13 36 -21 42 -7 7 -12 16 -9 20 3 5 1 11 -5 15 -6 4
-8 11 -5 16 4 5 0 9 -7 9 -25 0 -39 22 -25 38 9 12 9 16 0 19 -7 3 -13 11 -13
19 0 9 4 12 10 9 6 -4 9 4 7 17 -1 15 3 23 13 23 8 0 21 4 29 9 9 6 12 5 8 -1
-4 -6 0 -19 8 -29 8 -10 15 -26 15 -35 0 -9 6 -19 14 -22 16 -6 30 18 27 45
-2 12 5 18 21 19 13 0 68 2 123 4 157 4 211 13 262 39 25 14 51 23 56 19 5 -3
3 -9 -4 -14z m70 7 c11 -14 6 -15 -27 -7 -4 1 8 21 12 21 2 0 9 -6 15 -14z
m1721 -27 c0 -5 -4 -9 -10 -9 -5 0 -10 7 -10 16 0 8 5 12 10 9 6 -3 10 -10 10
-16z m-3350 -9 c0 -5 -5 -10 -11 -10 -5 0 -7 5 -4 10 3 6 8 10 11 10 2 0 4 -4
4 -10z m-380 -74 c0 -3 -4 -8 -10 -11 -5 -3 -10 -1 -10 4 0 6 5 11 10 11 6 0
10 -2 10 -4z m55 -65 c3 -5 1 -12 -5 -16 -5 -3 -10 1 -10 9 0 18 6 21 15 7z
m1745 -46 c7 -9 8 -15 2 -15 -5 0 -12 7 -16 15 -3 8 -4 15 -2 15 2 0 9 -7 16
-15z m303 -370 c-3 -9 -8 -14 -10 -11 -3 3 -2 9 2 15 9 16 15 13 8 -4z m637
-189 c-14 -14 -22 -2 -14 18 5 14 9 15 15 4 4 -7 4 -17 -1 -22z m-1473 -8 c-3
-7 -5 -2 -5 12 0 14 2 19 5 13 2 -7 2 -19 0 -25z m94 -31 c-8 -19 -6 -28 5
-38 8 -6 12 -14 9 -17 -3 -3 -1 -10 4 -16 4 -6 10 -20 13 -31 4 -17 0 -21 -20
-20 -33 0 -82 60 -82 100 0 20 3 26 9 17 6 -10 10 -8 14 8 4 17 11 21 26 17
12 -3 21 0 21 6 0 6 2 8 5 5 3 -3 1 -17 -4 -31z m-91 3 c0 -5 -2 -10 -4 -10
-3 0 -8 5 -11 10 -3 6 -1 10 4 10 6 0 11 -4 11 -10z m-70 -30 c0 -5 -2 -10 -4
-10 -3 0 -8 5 -11 10 -3 6 -1 10 4 10 6 0 11 -4 11 -10z m-50 -25 c0 -8 -2
-15 -4 -15 -2 0 -6 7 -10 15 -3 8 -1 15 4 15 6 0 10 -7 10 -15z m50 -19 c0 -3
-4 -8 -10 -11 -5 -3 -10 -1 -10 4 0 6 5 11 10 11 6 0 10 -2 10 -4z m67 -28
c-3 -7 -5 -2 -5 12 0 14 2 19 5 13 2 -7 2 -19 0 -25z m-82 -8 c-3 -5 5 -12 19
-16 20 -5 22 -9 13 -18 -9 -10 -15 -8 -29 10 -21 25 -22 34 -7 34 5 0 7 -4 4
-10z m-365 -14 c0 -2 -7 -6 -15 -10 -8 -3 -15 -1 -15 4 0 6 7 10 15 10 8 0 15
-2 15 -4z m-79 -29 c-10 -9 -11 -8 -5 6 3 10 9 15 12 12 3 -3 0 -11 -7 -18z
m195 -6 c0 -19 -19 -22 -33 -6 -4 4 -2 5 5 1 7 -4 12 -1 12 8 0 9 4 16 8 16 4
0 8 -8 8 -19z m211 -13 c-3 -8 -6 -5 -6 6 -1 11 2 17 5 13 3 -3 4 -12 1 -19z
m-315 -7 c-7 -4 -14 -17 -15 -28 -1 -18 -5 -20 -26 -11 l-25 9 19 -23 20 -22
-28 17 c-15 10 -32 15 -37 12 -17 -10 -22 17 -6 33 9 9 16 11 16 5 0 -6 -6
-14 -12 -16 -7 -3 -3 -6 10 -6 13 -1 21 3 18 8 -3 4 7 6 22 3 24 -4 25 -3 9 9
-16 13 -14 14 15 16 20 2 28 -1 20 -6z m-132 -15 c0 -2 -9 -6 -20 -9 -11 -3
-18 -1 -14 4 5 9 34 13 34 5z m180 -5 c0 -5 -7 -12 -16 -15 -14 -5 -15 -4 -4
9 14 17 20 19 20 6z m387 -12 c-1 -14 -5 -15 -19 -8 -21 11 -17 26 6 26 8 0
14 -8 13 -18z m-286 -19 c5 0 9 -4 9 -10 0 -5 -7 -10 -16 -10 -8 0 -12 5 -9
10 3 6 2 10 -4 10 -6 0 -7 8 -3 18 6 16 7 16 10 0 2 -10 8 -18 13 -18z m182
-15 c-7 -21 -12 -19 -10 4 0 11 5 18 9 15 4 -3 5 -11 1 -19z m-506 9 c-3 -3
-12 -4 -19 -1 -8 3 -5 6 6 6 11 1 17 -2 13 -5z m-7 -24 c0 -5 -2 -10 -4 -10
-3 0 -8 5 -11 10 -3 6 -1 10 4 10 6 0 11 -4 11 -10z m230 -10 c0 -5 -2 -10 -4
-10 -3 0 -8 5 -11 10 -3 6 -1 10 4 10 6 0 11 -4 11 -10z m255 -8 c-3 -3 -11 0
-18 7 -9 10 -8 11 6 5 10 -3 15 -9 12 -12z m-630 -83 c7 -21 26 -21 33 1 3 8
0 10 -8 5 -9 -6 -11 -4 -6 4 6 9 13 8 27 -5 10 -9 25 -14 34 -11 8 4 15 2 15
-3 0 -6 -12 -10 -26 -10 -24 0 -25 -3 -23 -40 3 -30 -2 -43 -16 -54 -17 -12
-18 -16 -5 -32 9 -11 10 -15 3 -10 -8 4 -13 2 -13 -4 0 -6 -4 -8 -10 -5 -5 3
-10 1 -10 -4 0 -6 7 -11 15 -11 13 0 11 -9 -8 -47 -14 -27 -22 -54 -20 -60 3
-7 -2 -16 -11 -19 -8 -3 -12 -12 -9 -20 3 -8 10 -11 16 -7 6 3 7 1 3 -5 -4 -7
-13 -12 -19 -12 -7 0 -18 -4 -26 -9 -12 -8 -12 -12 2 -26 22 -21 22 -36 0 -28
-15 5 -14 3 2 -10 20 -16 19 -16 -7 -15 -16 1 -28 6 -28 11 0 4 -4 6 -8 3 -14
-8 -12 72 2 83 7 6 12 22 10 36 -1 14 2 25 7 25 6 0 7 4 4 10 -9 14 6 81 16
74 5 -3 6 3 2 12 -5 13 -3 15 8 9 11 -7 12 -6 2 6 -10 12 -8 18 7 29 25 18 25
28 3 32 -16 3 -16 5 4 25 19 19 20 22 5 37 -13 12 -13 19 -4 28 9 9 12 9 12 0
0 -7 5 -12 10 -12 6 0 10 7 10 15 0 8 -4 15 -10 15 -5 0 -10 5 -10 10 0 18 19
10 25 -11z m-141 -74 c-4 -8 -13 -15 -20 -15 -12 0 -12 3 -2 15 17 19 29 19
22 0z m2846 5 c0 -5 -2 -10 -4 -10 -3 0 -8 5 -11 10 -3 6 -1 10 4 10 6 0 11
-4 11 -10z m-2861 -57 c-18 -23 -31 -33 -44 -33 -6 0 -6 3 1 8 6 4 13 15 17
25 3 9 14 17 23 17 14 0 15 -2 3 -17z m3158 -4 c6 -6 17 -11 25 -13 18 -2 33
-17 72 -68 15 -21 33 -36 39 -35 6 1 12 -5 12 -13 0 -8 7 -14 14 -12 7 1 10
-2 7 -7 -4 -5 -3 -11 1 -13 5 -1 16 -19 26 -38 l17 -35 -27 31 c-16 18 -52 60
-82 95 -30 35 -71 74 -93 87 -21 13 -38 25 -38 28 0 8 16 4 27 -7z m-3189 -67
c2 -7 -2 -10 -12 -6 -9 3 -16 11 -16 16 0 13 23 5 28 -10z m3196 -28 c5 -14 4
-15 -9 -4 -17 14 -19 20 -6 20 5 0 12 -7 15 -16z m-3190 -32 c2 -4 -12 -9 -32
-9 -32 -1 -34 0 -12 7 34 11 38 11 44 2z m-39 -62 c3 -5 -1 -10 -10 -10 -9 0
-13 5 -10 10 3 6 8 10 10 10 2 0 7 -4 10 -10z m242 -20 c-1 -22 -17 -28 -17
-7 0 12 9 27 16 27 2 0 2 -9 1 -20z m3208 -80 c-3 -5 1 -10 9 -10 13 0 16 -12
16 -52 0 -59 -14 -60 -19 -1 0 9 -4 13 -8 10 -7 -8 -32 23 -33 41 0 7 4 11 9
7 5 -3 12 -1 16 5 3 5 8 10 11 10 3 0 2 -4 -1 -10z m-3311 -45 c3 -8 1 -15 -4
-15 -6 0 -10 7 -10 15 0 8 2 15 4 15 2 0 6 -7 10 -15z m-239 -4 c3 -5 1 -12
-5 -16 -5 -3 -10 1 -10 9 0 18 6 21 15 7z m326 -124 c-13 -13 -26 -3 -16 12 3
6 11 8 17 5 6 -4 6 -10 -1 -17z m14 -27 c3 -6 -4 -10 -17 -10 -18 0 -20 2 -8
10 19 12 18 12 25 0z"/>
<path d="M1673 3259 c-2 -23 3 -25 10 -4 4 8 3 16 -1 19 -4 3 -9 -4 -9 -15z"/>
<path d="M1625 3250 c-3 -5 -1 -10 4 -10 6 0 11 5 11 10 0 6 -2 10 -4 10 -3 0
-8 -4 -11 -10z"/>
<path d="M2487 2740 c3 -11 9 -20 15 -20 5 0 4 9 -2 20 -6 11 -12 20 -14 20
-2 0 -2 -9 1 -20z"/>
<path d="M2450 2710 c0 -5 5 -10 10 -10 6 0 10 5 10 10 0 6 -4 10 -10 10 -5 0
-10 -4 -10 -10z"/>
<path d="M2237 2693 c-3 -4 1 -13 8 -20 10 -10 16 -9 26 5 7 9 9 14 5 10 -5
-4 -15 -3 -22 3 -7 5 -14 6 -17 2z"/>
<path d="M2490 2684 c0 -8 5 -12 10 -9 6 3 10 10 10 16 0 5 -4 9 -10 9 -5 0
-10 -7 -10 -16z"/>
<path d="M2120 2679 c0 -5 -5 -7 -11 -3 -6 3 -15 0 -20 -7 -6 -9 -9 -10 -9 -2
0 11 -42 9 -61 -3 -15 -9 3 -40 24 -42 51 -4 112 0 128 9 10 5 28 10 41 10 17
1 18 3 6 6 -10 2 -18 9 -18 14 0 6 4 8 8 5 5 -3 9 1 9 9 0 18 -2 18 -27 3 -17
-11 -22 -10 -29 1 -7 11 -9 11 -14 0 -4 -10 -6 -10 -6 -1 -1 15 -21 16 -21 1z"/>
<path d="M2465 2681 c-3 -5 -1 -12 5 -16 5 -3 10 1 10 9 0 18 -6 21 -15 7z"/>
<path d="M2025 2550 c-7 -12 2 -12 30 0 19 8 19 9 -2 9 -12 1 -25 -3 -28 -9z"/>
<path d="M2075 2543 c-27 -7 -56 -33 -49 -45 4 -6 -2 -8 -14 -4 -11 4 -23 2
-27 -4 -4 -6 9 -10 36 -10 33 0 39 3 31 13 -18 21 22 41 43 21 8 -8 15 -21 15
-28 0 -10 19 -13 73 -11 42 1 75 -3 79 -9 5 -8 8 -7 8 1 0 6 9 9 23 6 l22 -6
-22 21 c-46 45 -86 62 -143 61 -30 -1 -64 -4 -75 -6z m100 -42 c-3 -6 -14 -10
-23 -10 -15 1 -15 2 1 6 9 2 17 9 17 15 0 6 3 9 6 5 3 -3 3 -10 -1 -16z m65 5
c0 -3 -4 -8 -10 -11 -5 -3 -10 -1 -10 4 0 6 5 11 10 11 6 0 10 -2 10 -4z"/>
<path d="M1821 2278 c-10 -16 -7 -24 24 -55 21 -21 41 -33 50 -29 8 3 15 2 15
-2 0 -4 17 -8 38 -10 20 -1 39 -7 40 -12 7 -21 19 -9 15 15 -4 16 -19 31 -47
45 -23 11 -47 20 -53 20 -6 0 -14 7 -17 16 -3 8 -10 12 -16 9 -5 -3 -10 0 -10
8 0 20 -25 17 -39 -5z"/>
<path d="M2405 1800 c3 -5 8 -10 11 -10 2 0 4 5 4 10 0 6 -5 10 -11 10 -5 0
-7 -4 -4 -10z"/>
<path d="M2370 1764 c0 -8 5 -12 10 -9 6 4 8 11 5 16 -9 14 -15 11 -15 -7z"/>
<path d="M30 2540 c0 -5 5 -10 10 -10 6 0 10 5 10 10 0 6 -4 10 -10 10 -5 0
-10 -4 -10 -10z"/>
<path d="M1660 1730 c0 -5 5 -10 10 -10 6 0 10 5 10 10 0 6 -4 10 -10 10 -5 0
-10 -4 -10 -10z"/>
<path d="M565 3989 c-11 -17 1 -21 15 -4 8 9 8 15 2 15 -6 0 -14 -5 -17 -11z"/>
<path d="M638 3993 c7 -3 16 -2 19 1 4 3 -2 6 -13 5 -11 0 -14 -3 -6 -6z"/>
<path d="M706 3991 c-15 -6 -16 -10 -7 -16 7 -4 16 -3 20 3 3 5 15 12 26 15
l20 5 -20 0 c-11 0 -29 -3 -39 -7z"/>
<path d="M785 3980 c-3 -5 -1 -10 4 -10 6 0 11 5 11 10 0 6 -2 10 -4 10 -3 0
-8 -4 -11 -10z"/>
<path d="M635 3960 c-8 -13 3 -30 18 -30 8 0 7 3 -2 9 -7 5 -10 14 -7 20 4 6
5 11 2 11 -3 0 -8 -4 -11 -10z"/>
<path d="M581 3833 c0 -25 1 -26 9 -8 12 27 12 35 0 35 -5 0 -10 -12 -9 -27z"/>
<path d="M280 3790 c0 -5 5 -10 10 -10 6 0 10 5 10 10 0 6 -4 10 -10 10 -5 0
-10 -4 -10 -10z"/>
<path d="M500 3790 c0 -5 5 -10 10 -10 6 0 10 5 10 10 0 6 -4 10 -10 10 -5 0
-10 -4 -10 -10z"/>
<path d="M550 3781 c0 -5 5 -13 10 -16 6 -3 10 -2 10 4 0 5 -4 13 -10 16 -5 3
-10 2 -10 -4z"/>
<path d="M306 3761 c-4 -7 -5 -15 -2 -18 9 -9 19 4 14 18 -4 11 -6 11 -12 0z"/>
<path d="M231 3694 c0 -11 3 -14 6 -6 3 7 2 16 -1 19 -3 4 -6 -2 -5 -13z"/>
<path d="M264 3675 c8 -8 21 -15 30 -15 8 0 18 -4 21 -10 8 -12 25 -13 25 -1
0 5 -18 16 -40 25 -50 20 -55 20 -36 1z"/>
<path d="M1688 3658 c5 -5 16 -8 23 -6 8 3 3 7 -10 11 -17 4 -21 3 -13 -5z"/>
<path d="M160 3617 c0 -20 69 -30 90 -13 8 7 22 16 30 19 12 4 12 6 -2 6 -9 1
-23 -6 -32 -14 -18 -18 -37 -20 -33 -2 1 7 -10 13 -25 15 -19 2 -28 -1 -28
-11z"/>
<path d="M2115 3620 c3 -5 11 -10 16 -10 6 0 7 5 4 10 -3 6 -11 10 -16 10 -6
0 -7 -4 -4 -10z"/>
<path d="M175 3563 c-11 -3 -24 -9 -30 -14 -10 -10 45 -2 80 12 18 7 17 8 -5
7 -14 0 -34 -2 -45 -5z"/>
<path d="M485 3540 c-3 -5 1 -10 9 -10 8 0 18 5 21 10 3 6 -1 10 -9 10 -8 0
-18 -4 -21 -10z"/>
<path d="M205 3507 c-4 -10 -5 -21 -1 -24 10 -10 18 4 13 24 -4 17 -4 17 -12
0z"/>
<path d="M145 3407 c-4 -10 -5 -21 -1 -24 10 -10 18 4 13 24 -4 17 -4 17 -12
0z"/>
<path d="M180 3410 c0 -5 5 -10 10 -10 6 0 10 5 10 10 0 6 -4 10 -10 10 -5 0
-10 -4 -10 -10z"/>
<path d="M365 3370 c-3 -5 -1 -10 4 -10 6 0 11 5 11 10 0 6 -2 10 -4 10 -3 0
-8 -4 -11 -10z"/>
<path d="M268 3313 c6 -2 18 -2 25 0 6 3 1 5 -13 5 -14 0 -19 -2 -12 -5z"/>
<path d="M625 3300 c3 -5 8 -10 11 -10 2 0 4 5 4 10 0 6 -5 10 -11 10 -5 0 -7
-4 -4 -10z"/>
<path d="M95 3290 c-3 -5 1 -10 9 -10 9 0 16 5 16 10 0 6 -4 10 -9 10 -6 0
-13 -4 -16 -10z"/>
<path d="M62 3268 c5 -16 58 -23 58 -9 0 6 -6 8 -14 5 -8 -3 -17 -1 -21 5 -9
15 -28 14 -23 -1z"/>
<path d="M99 3223 c-1 -5 -1 -11 0 -15 0 -5 -6 -8 -14 -8 -8 0 -15 -8 -15 -17
0 -15 2 -16 10 -3 9 13 11 13 19 0 6 -8 14 -11 18 -6 4 5 3 11 -3 13 -7 2 -10
13 -7 23 3 11 3 20 -1 20 -3 0 -7 -3 -7 -7z"/>
<path d="M55 3116 c-4 -23 -5 -70 -3 -106 4 -63 4 -62 6 18 1 59 6 88 17 98
19 19 19 31 0 31 -9 0 -16 -15 -20 -41z"/>
<path d="M125 3150 c3 -5 8 -10 11 -10 2 0 4 5 4 10 0 6 -5 10 -11 10 -5 0 -7
-4 -4 -10z"/>
<path d="M94 3124 c3 -9 6 -23 6 -32 1 -15 2 -15 15 1 16 22 10 47 -12 47 -10
0 -13 -6 -9 -16z"/>
<path d="M71 3084 c0 -11 3 -14 6 -6 3 7 2 16 -1 19 -3 4 -6 -2 -5 -13z"/>
<path d="M100 3055 c0 -11 -5 -15 -15 -11 -12 4 -15 -4 -15 -39 0 -35 3 -43
15 -39 9 4 15 19 15 35 0 16 5 29 10 29 6 0 10 6 10 14 0 8 -4 18 -10 21 -5 3
-10 -1 -10 -10z"/>
<path d="M90 2931 c0 -5 5 -13 10 -16 6 -3 10 -2 10 4 0 5 -4 13 -10 16 -5 3
-10 2 -10 -4z"/>
<path d="M77 2849 c6 -22 23 -26 23 -5 0 8 -6 16 -14 19 -10 4 -12 0 -9 -14z"/>
<path d="M150 2799 c0 -5 5 -7 10 -4 6 3 10 8 10 11 0 2 -4 4 -10 4 -5 0 -10
-5 -10 -11z"/>
<path d="M185 2720 c-3 -5 -2 -10 4 -10 5 0 13 5 16 10 3 6 2 10 -4 10 -5 0
-13 -4 -16 -10z"/>
<path d="M160 2689 c0 -5 5 -7 10 -4 6 3 10 8 10 11 0 2 -4 4 -10 4 -5 0 -10
-5 -10 -11z"/>
<path d="M205 2680 c-3 -5 1 -10 10 -10 9 0 13 5 10 10 -3 6 -8 10 -10 10 -2
0 -7 -4 -10 -10z"/>
<path d="M126 2671 c-4 -5 -2 -12 3 -15 5 -4 12 -2 15 3 4 5 2 12 -3 15 -5 4
-12 2 -15 -3z"/>
<path d="M236 2637 c3 -10 9 -15 12 -12 3 3 0 11 -7 18 -10 9 -11 8 -5 -6z"/>
<path d="M185 2620 c-3 -5 3 -10 15 -10 12 0 18 5 15 10 -3 6 -10 10 -15 10
-5 0 -12 -4 -15 -10z"/>
<path d="M350 2544 c0 -8 5 -12 10 -9 6 3 10 10 10 16 0 5 -4 9 -10 9 -5 0
-10 -7 -10 -16z"/>
<path d="M390 2478 c0 -9 5 -20 10 -23 13 -8 13 5 0 25 -8 13 -10 13 -10 -2z"/>
<path d="M300 2460 c0 -5 5 -10 10 -10 6 0 10 5 10 10 0 6 -4 10 -10 10 -5 0
-10 -4 -10 -10z"/>
<path d="M435 2421 c-4 -7 -3 -16 2 -20 6 -3 13 -13 16 -21 5 -13 5 -13 6 0 0
8 -4 24 -8 34 -6 15 -10 16 -16 7z"/>
<path d="M2821 2374 c0 -11 3 -14 6 -6 3 7 2 16 -1 19 -3 4 -6 -2 -5 -13z"/>
<path d="M587 2373 c-4 -3 -7 -11 -7 -17 0 -6 5 -5 12 2 6 6 9 14 7 17 -3 3
-9 2 -12 -2z"/>
<path d="M358 2323 c6 -2 18 -2 25 0 6 3 1 5 -13 5 -14 0 -19 -2 -12 -5z"/>
<path d="M490 2305 c0 -8 5 -15 10 -15 6 0 10 7 10 15 0 8 -4 15 -10 15 -5 0
-10 -7 -10 -15z"/>
<path d="M415 2280 c4 -6 11 -8 16 -5 14 9 11 15 -7 15 -8 0 -12 -5 -9 -10z"/>
<path d="M356 2271 c-4 -7 -5 -15 -2 -18 9 -9 19 4 14 18 -4 11 -6 11 -12 0z"/>
<path d="M1130 2240 c-8 -5 -25 -10 -36 -10 -12 0 -25 -7 -28 -16 -9 -24 -7
-28 8 -15 7 6 21 9 30 5 9 -4 16 -1 16 6 0 7 8 19 18 26 20 15 14 18 -8 4z"/>
<path d="M935 2230 c3 -5 10 -10 16 -10 5 0 9 5 9 10 0 6 -7 10 -16 10 -8 0
-12 -4 -9 -10z"/>
<path d="M220 2210 c0 -5 5 -10 10 -10 6 0 10 5 10 10 0 6 -4 10 -10 10 -5 0
-10 -4 -10 -10z"/>
<path d="M1017 2204 c-8 -8 1 -24 14 -24 5 0 9 7 9 15 0 15 -12 20 -23 9z"/>
<path d="M1106 2182 c-11 -10 -6 -30 7 -35 7 -3 18 3 25 13 9 15 7 19 -8 23
-10 3 -21 2 -24 -1z"/>
<path d="M261 2144 c0 -11 3 -14 6 -6 3 7 2 16 -1 19 -3 4 -6 -2 -5 -13z"/>
<path d="M1008 2113 c6 -2 18 -2 25 0 6 3 1 5 -13 5 -14 0 -19 -2 -12 -5z"/>
<path d="M278 2083 c7 -3 16 -2 19 1 4 3 -2 6 -13 5 -11 0 -14 -3 -6 -6z"/>
<path d="M810 2070 c0 -5 5 -10 11 -10 5 0 7 5 4 10 -3 6 -8 10 -11 10 -2 0
-4 -4 -4 -10z"/>
<path d="M588 1993 c7 -3 16 -2 19 1 4 3 -2 6 -13 5 -11 0 -14 -3 -6 -6z"/>
<path d="M675 1971 c-8 -15 3 -31 21 -31 9 0 14 7 12 17 -4 20 -24 28 -33 14z"/>
<path d="M640 1936 c0 -9 5 -16 10 -16 6 0 10 4 10 9 0 6 -4 13 -10 16 -5 3
-10 -1 -10 -9z"/>
<path d="M190 1880 c0 -13 20 -13 40 0 12 8 9 10 -12 10 -16 0 -28 -4 -28 -10z"/>
<path d="M3920 1860 c0 -5 5 -10 11 -10 5 0 7 5 4 10 -3 6 -8 10 -11 10 -2 0
-4 -4 -4 -10z"/>
<path d="M480 1839 c0 -5 5 -7 10 -4 6 3 10 8 10 11 0 2 -4 4 -10 4 -5 0 -10
-5 -10 -11z"/>
<path d="M490 1810 c0 -5 5 -10 10 -10 6 0 10 5 10 10 0 6 -4 10 -10 10 -5 0
-10 -4 -10 -10z"/>
<path d="M265 1730 c-8 -13 5 -13 25 0 13 8 13 10 -2 10 -9 0 -20 -4 -23 -10z"/>
<path d="M2943 1011 c0 -11 11 -24 24 -30 25 -11 33 3 9 16 -8 4 -15 12 -15
18 0 5 -4 11 -10 13 -5 2 -9 -6 -8 -17z"/>
<path d="M1710 886 c0 -2 8 -10 18 -17 15 -13 16 -12 3 4 -13 16 -21 21 -21
13z"/>
<path d="M3150 801 c0 -9 24 -21 42 -21 6 0 6 6 -2 15 -14 16 -40 20 -40 6z"/>
<path d="M930 761 c-8 -6 -18 -7 -22 -5 -4 3 -8 -1 -8 -8 0 -10 -2 -10 -8 -1
-5 7 -13 9 -22 3 -11 -7 -12 -14 -2 -34 6 -14 8 -25 4 -25 -29 5 -33 -3 -13
-20 16 -14 19 -21 10 -27 -7 -4 -15 -2 -17 4 -2 8 -8 7 -19 -4 -12 -11 -18
-12 -23 -4 -5 9 -9 9 -14 1 -10 -16 22 -25 38 -12 9 8 17 8 20 2 3 -5 0 -12
-6 -14 -8 -3 -5 -6 6 -6 16 -1 17 -3 5 -18 -10 -11 -11 -17 -3 -20 9 -3 9 -10
0 -28 -8 -18 -19 -25 -40 -25 -37 0 -28 -10 12 -15 26 -3 33 1 44 26 7 16 19
29 25 29 7 0 13 4 13 10 0 5 -7 7 -15 4 -9 -4 -15 0 -15 9 0 8 9 17 21 20 13
4 18 10 14 17 -6 9 -10 9 -16 -1 -6 -10 -9 -10 -9 -2 0 7 7 16 16 21 14 8 14
10 0 21 -25 21 -19 41 14 47 16 4 27 11 24 16 -3 5 -13 7 -21 4 -8 -4 -11 -1
-7 5 3 6 14 9 23 6 11 -3 17 2 18 14 2 21 -5 23 -27 10z m-40 -41 c0 -5 -2
-10 -4 -10 -3 0 -8 5 -11 10 -3 6 -1 10 4 10 6 0 11 -4 11 -10z"/>
<path d="M3218 728 c5 -5 16 -8 23 -6 8 3 3 7 -10 11 -17 4 -21 3 -13 -5z"/>
<path d="M816 722 c-2 -4 4 -8 15 -8 10 0 19 4 19 8 0 10 -27 10 -34 0z"/>
<path d="M970 716 c0 -2 7 -9 15 -16 12 -10 15 -10 15 4 0 9 -7 16 -15 16 -8
0 -15 -2 -15 -4z"/>
<path d="M1030 711 c0 -6 5 -13 10 -16 6 -3 10 1 10 9 0 9 -4 16 -10 16 -5 0
-10 -4 -10 -9z"/>
<path d="M1108 713 c7 -3 16 -2 19 1 4 3 -2 6 -13 5 -11 0 -14 -3 -6 -6z"/>
<path d="M1275 710 c-3 -5 3 -10 15 -10 12 0 18 5 15 10 -3 6 -10 10 -15 10
-5 0 -12 -4 -15 -10z"/>
<path d="M3207 704 c6 -15 23 -19 23 -5 0 5 -7 11 -14 14 -10 4 -13 1 -9 -9z"/>
<path d="M1105 690 c3 -5 8 -10 11 -10 2 0 4 5 4 10 0 6 -5 10 -11 10 -5 0 -7
-4 -4 -10z"/>
<path d="M950 686 c0 -2 7 -6 15 -10 8 -3 15 -1 15 4 0 6 -7 10 -15 10 -8 0
-15 -2 -15 -4z"/>
<path d="M1027 671 c2 -7 -2 -20 -8 -27 -8 -9 -8 -14 -1 -14 6 0 14 9 17 20 3
11 13 20 21 20 8 0 14 5 14 10 0 7 -6 7 -19 0 -11 -5 -21 -7 -24 -2 -2 4 -2 1
0 -7z"/>
<path d="M1277 674 c-4 -4 -7 -14 -7 -23 0 -11 3 -12 11 -4 6 6 10 16 7 23 -2
6 -7 8 -11 4z"/>
<path d="M940 661 c0 -13 36 -42 43 -34 12 12 8 20 -18 31 -14 6 -25 8 -25 3z"/>
<path d="M1220 635 c0 -8 5 -15 10 -15 6 0 10 7 10 15 0 8 -4 15 -10 15 -5 0
-10 -7 -10 -15z"/>
<path d="M980 610 c-9 -6 -10 -10 -3 -10 6 0 15 5 18 10 8 12 4 12 -15 0z"/>
<path d="M930 600 c0 -5 5 -10 11 -10 5 0 7 5 4 10 -3 6 -8 10 -11 10 -2 0 -4
-4 -4 -10z"/>
<path d="M1155 594 c9 -9 14 -22 11 -29 -3 -9 2 -11 15 -8 20 5 19 6 -2 29
-12 13 -27 24 -31 24 -5 0 -2 -7 7 -16z"/>
<path d="M1035 576 c-21 -23 -16 -45 11 -52 19 -5 29 -2 36 10 5 9 13 14 19
11 5 -4 9 -4 9 -1 0 3 -9 10 -20 16 -11 6 -20 7 -19 3 3 -18 -2 -33 -11 -33
-5 0 -6 8 -3 18 6 15 5 16 -12 2 -17 -14 -18 -14 -6 8 14 26 12 36 -4 18z"/>
<path d="M985 561 c-3 -6 -10 -9 -15 -6 -5 3 -11 1 -15 -5 -3 -5 0 -10 7 -10
18 0 44 18 36 25 -3 4 -9 1 -13 -4z"/>
<path d="M890 523 c-13 -13 -19 -23 -13 -23 7 0 15 5 18 11 4 6 13 8 21 5 18
-7 25 6 10 20 -8 7 -18 4 -36 -13z"/>
<path d="M941 503 c-8 -14 -12 -15 -25 -4 -14 11 -16 11 -16 -3 0 -13 -6 -16
-22 -11 -20 5 -20 4 -6 -5 10 -6 15 -17 11 -28 -4 -13 -2 -13 10 3 10 12 16
15 17 7 0 -7 -12 -24 -26 -37 -26 -24 -26 -25 -5 -25 24 0 28 -18 6 -26 -19
-8 -65 40 -65 67 0 10 -5 19 -11 19 -6 0 -8 -7 -5 -16 4 -9 1 -23 -5 -30 -9
-12 -9 -13 3 -9 9 4 15 0 15 -9 0 -8 -3 -15 -6 -14 -19 2 -24 -4 -12 -11 12
-8 12 -12 2 -25 -14 -16 -6 -40 10 -30 5 3 7 10 4 15 -4 5 2 9 12 10 10 0 13
3 6 6 -20 8 -15 23 8 23 16 0 19 -4 14 -22 -4 -15 -3 -18 3 -10 6 10 13 8 27
-8 17 -19 14 -25 -10 -20 -5 1 -5 -4 2 -10 6 -7 16 -9 22 -6 15 9 14 39 -1 54
-10 10 -6 18 17 38 17 14 24 22 17 19 -11 -6 -12 -3 -3 14 8 14 8 21 1 21 -11
0 -14 30 -2 30 11 1 44 50 33 50 -6 0 -14 -8 -20 -17z"/>
<path d="M967 493 c-4 -6 -1 -14 5 -16 7 -3 3 -6 -9 -6 -13 -1 -23 -5 -23 -11
0 -5 2 -10 4 -10 2 0 13 -3 23 -6 15 -5 15 -4 3 5 -13 9 -13 11 3 11 9 0 17 5
17 11 0 6 6 9 13 6 8 -3 20 -1 28 4 9 6 4 8 -18 5 -18 -2 -34 2 -36 7 -2 8 -5
8 -10 0z"/>
<path d="M1100 490 c-8 -5 -11 -12 -7 -16 4 -4 13 -2 19 4 15 15 7 24 -12 12z"/>
<path d="M1050 440 c0 -5 5 -10 11 -10 5 0 7 5 4 10 -3 6 -8 10 -11 10 -2 0
-4 -4 -4 -10z"/>
<path d="M960 400 c8 -5 20 -10 25 -10 6 0 3 5 -5 10 -8 5 -19 10 -25 10 -5 0
-3 -5 5 -10z"/>
<path d="M3672 366 c7 -8 15 -12 17 -11 5 6 -10 25 -20 25 -5 0 -4 -6 3 -14z"/>
<path d="M748 363 c6 -2 18 -2 25 0 6 3 1 5 -13 5 -14 0 -19 -2 -12 -5z"/>
<path d="M915 360 c-3 -5 1 -10 10 -10 9 0 13 5 10 10 -3 6 -8 10 -10 10 -2 0
-7 -4 -10 -10z"/>
<path d="M3680 320 c0 -6 7 -10 15 -10 8 0 15 2 15 4 0 2 -7 6 -15 10 -8 3
-15 1 -15 -4z"/>
<path d="M750 300 c0 -6 7 -10 15 -10 8 0 15 2 15 4 0 2 -7 6 -15 10 -8 3 -15
1 -15 -4z"/>
<path d="M791 271 c-22 -17 -23 -19 -6 -22 18 -4 18 -5 1 -22 -10 -10 -16 -20
-13 -23 3 -3 14 5 26 17 12 13 21 20 21 16 0 -4 9 1 20 10 11 10 20 22 20 27
0 6 -5 5 -12 -2 -16 -16 -26 -15 -30 3 -2 12 -7 11 -27 -4z"/>
<path d="M693 224 c-9 -9 -10 -15 -2 -20 8 -4 7 -9 -1 -14 -7 -4 -9 -13 -5
-20 11 -19 36 24 27 48 -6 16 -9 18 -19 6z"/>
<path d="M852 226 c7 -8 15 -12 17 -11 5 6 -10 25 -20 25 -5 0 -4 -6 3 -14z"/>
<path d="M3760 219 c0 -5 5 -7 10 -4 6 3 10 8 10 11 0 2 -4 4 -10 4 -5 0 -10
-5 -10 -11z"/>
<path d="M826 191 c-4 -5 -15 -8 -26 -6 -11 2 -20 -1 -20 -8 0 -8 -3 -8 -12 1
-15 15 -28 15 -28 1 0 -5 5 -7 10 -4 6 3 10 1 10 -4 0 -6 -6 -11 -12 -11 -7 0
-4 -6 6 -12 15 -8 21 -8 24 0 2 7 8 10 12 7 10 -6 55 34 47 41 -3 3 -8 1 -11
-5z"/>
<path d="M3773 184 c0 -16 13 -19 21 -5 3 5 0 11 -7 14 -8 3 -14 -1 -14 -9z"/>
<path d="M868 153 c6 -2 10 -8 8 -12 -3 -4 7 -8 22 -9 l27 -1 -25 14 c-14 8
-29 14 -35 14 -5 0 -4 -3 3 -6z"/>
<path d="M845 114 c0 -13 3 -24 8 -24 4 0 7 9 7 19 0 11 -3 22 -7 24 -5 3 -8
-6 -8 -19z"/>
<path d="M795 100 c-19 -8 -19 -9 3 -9 12 -1 22 4 22 9 0 6 -1 10 -2 9 -2 0
-12 -4 -23 -9z"/>
<path d="M846 36 c-23 -36 -20 -44 5 -12 12 15 19 29 16 32 -2 2 -12 -7 -21
-20z"/>
<path d="M906 38 c7 -10 24 -10 24 0 0 5 -7 9 -15 9 -8 0 -12 -4 -9 -9z"/>
<path d="M3775 10 c3 -5 8 -10 11 -10 2 0 4 5 4 10 0 6 -5 10 -11 10 -5 0 -7
-4 -4 -10z"/>
</g>
</svg>
